<svg xmlns="http://www.w3.org/2000/svg" fill="none" viewBox="0 0 24 24"><path fill="#000" fill-rule="evenodd" d="M7.624 4.062a4.806 4.806 0 0 0-.419 1.601H4.5a2 2 0 0 0-1.993 1.834l-.766 9.186a5 5 0 0 0 4.983 5.415h10.552a5 5 0 0 0 4.983-5.415l-.766-9.186A2 2 0 0 0 19.5 5.663h-2.705a4.81 4.81 0 0 0-9.171-1.601zm7.414 1.601H8.962a3.064 3.064 0 0 1 6.076 0zm4.462 2h-15l-.765 9.186a3 3 0 0 0 2.99 3.249h10.551a3 3 0 0 0 2.99-3.25L19.5 7.664zm-9.667 4.174a3.063 3.063 0 0 1-.657-.978l-.007-.016a3.058 3.058 0 0 1-.11-.31 1.398 1.398 0 0 0-.126-.3c-.185-.323-.497-.563-.87-.563-.483 0-.883.395-.795.87a4.806 4.806 0 0 0 .287.972l.02.048a4.812 4.812 0 0 0 8.85 0l.02-.048a4.781 4.781 0 0 0 .288-.973c.087-.474-.313-.869-.795-.869-.374 0-.686.24-.87.564a1.399 1.399 0 0 0-.128.298 3.05 3.05 0 0 1-.11.31l-.006.017a3.062 3.062 0 0 1-4.99.978z" clip-rule="evenodd"/></svg>