<svg xmlns="http://www.w3.org/2000/svg" class="_ab6-" color="#262626" viewBox="0 0 24 24"><path fill="none" stroke="currentColor" stroke-linecap="round" stroke-linejoin="round" stroke-width="2" d="M10.201 3.797 12 1.997l1.799 1.8a1.59 1.59 0 0 0 1.124.465h5.259A1.818 1.818 0 0 1 22 6.08v14.104a1.818 1.818 0 0 1-1.818 1.818H3.818A1.818 1.818 0 0 1 2 20.184V6.08a1.818 1.818 0 0 1 1.818-1.818h5.26a1.59 1.59 0 0 0 1.123-.465Z"/><path fill="none" stroke="currentColor" stroke-linecap="round" stroke-linejoin="round" stroke-width="2" d="M18.598 22.002V21.4a3.949 3.949 0 0 0-3.948-3.949H9.495A3.949 3.949 0 0 0 5.546 21.4v.603"/><circle cx="12.072" cy="11.075" r="3.556" fill="none" stroke="currentColor" stroke-linecap="round" stroke-linejoin="round" stroke-width="2"/></svg>